<svg width="28" height="28" viewBox="0 0 28 28" fill="none" xmlns="http://www.w3.org/2000/svg">
<g clip-path="url(#clip0_82_74)">
<path d="M14 28C6.2692 28 0 21.7308 0 14C0 6.2692 6.2692 0 14 0C21.7308 0 28 6.2692 28 14C28 21.7308 21.7308 28 14 28Z" fill="#2D7564"/>
<path d="M17.6399 27.9999V17.1555H21.2799L21.8259 12.9303H17.6399V10.2311C17.6399 9.00751 17.9787 8.17311 19.7343 8.17311H21.9715V4.39591C21.5851 4.34551 20.2551 4.23071 18.7095 4.23071C15.4839 4.23071 13.2747 6.19911 13.2747 9.81671V12.9331H9.62634V17.1583H13.2747V27.9999H17.6399Z" fill="#90D4C5"/>
</g>
<defs>
<clipPath id="clip0_82_74">
<rect width="28" height="28" fill="white"/>
</clipPath>
</defs>
</svg>
