<svg width="28" height="28" viewBox="0 0 28 28" fill="none" xmlns="http://www.w3.org/2000/svg">
<path d="M14 6.71753C10.0484 6.71753 6.77417 9.93527 6.77417 13.9433C6.77417 17.9514 9.99191 21.1691 14 21.1691C18.008 21.1691 21.2258 17.8949 21.2258 13.9433C21.2258 9.99172 17.9516 6.71753 14 6.71753ZM14 18.5724C11.4597 18.5724 9.37094 16.4837 9.37094 13.9433C9.37094 11.403 11.4597 9.3143 14 9.3143C16.5403 9.3143 18.629 11.403 18.629 13.9433C18.629 16.4837 16.5403 18.5724 14 18.5724Z" fill="#2D7564"/>
<path d="M21.5081 8.18533C22.4122 8.18533 23.1452 7.45237 23.1452 6.54823C23.1452 5.64409 22.4122 4.91113 21.5081 4.91113C20.6039 4.91113 19.871 5.64409 19.871 6.54823C19.871 7.45237 20.6039 8.18533 21.5081 8.18533Z" fill="#2D7564"/>
<path d="M25.7419 2.31452C24.2742 0.790322 22.1855 0 19.8145 0H8.18548C3.27419 0 0 3.27419 0 8.18548V19.7581C0 22.1855 0.790322 24.2742 2.37097 25.7984C3.89516 27.2661 5.92742 28 8.24194 28H19.7581C22.1855 28 24.2177 27.2097 25.6855 25.7984C27.2097 24.3306 28 22.2419 28 19.8145V8.18548C28 5.81452 27.2097 3.78226 25.7419 2.31452ZM25.5161 19.8145C25.5161 21.5645 24.8952 22.9758 23.879 23.9355C22.8629 24.8952 21.4516 25.4032 19.7581 25.4032H8.24194C6.54839 25.4032 5.1371 24.8952 4.12097 23.9355C3.10484 22.9194 2.59677 21.5081 2.59677 19.7581V8.18548C2.59677 6.49193 3.10484 5.08065 4.12097 4.06452C5.08065 3.10484 6.54839 2.59677 8.24194 2.59677H19.871C21.5645 2.59677 22.9758 3.10484 23.9919 4.12097C24.9516 5.1371 25.5161 6.54839 25.5161 8.18548V19.8145Z" fill="#2D7564"/>
</svg>
