<svg width="28" height="28" viewBox="0 0 28 28" fill="none" xmlns="http://www.w3.org/2000/svg">
<g clip-path="url(#clip0_82_70)">
<path d="M13.9999 0C6.26795 0 0 6.26812 0 13.9999C0 19.9311 3.69004 25.0014 8.89804 27.0413C8.77554 25.9336 8.66502 24.2301 8.94666 23.0208C9.20095 21.9282 10.5883 16.0619 10.5883 16.0619C10.5883 16.0619 10.1694 15.2233 10.1694 13.9833C10.1694 12.0367 11.2977 10.5833 12.7027 10.5833C13.897 10.5833 14.4741 11.4802 14.4741 12.5554C14.4741 13.7567 13.7093 15.5525 13.3145 17.2167C12.9848 18.6103 14.0134 19.7466 15.3877 19.7466C17.8761 19.7466 19.7888 17.1229 19.7888 13.3357C19.7888 9.98369 17.3801 7.64001 13.9409 7.64001C9.95745 7.64001 7.61923 10.6278 7.61923 13.7155C7.61923 14.9189 8.0827 16.209 8.66113 16.9104C8.77543 17.049 8.79227 17.1706 8.75826 17.312C8.65189 17.7542 8.4158 18.7051 8.36937 18.8997C8.30829 19.1559 8.16643 19.2104 7.9012 19.0869C6.15262 18.273 5.05947 15.7167 5.05947 13.6633C5.05947 9.24705 8.26809 5.19143 14.3098 5.19143C19.1663 5.19143 22.9406 8.652 22.9406 13.277C22.9406 18.102 19.8984 21.985 15.6758 21.985C14.2572 21.985 12.9235 21.248 12.4671 20.3775C12.4671 20.3775 11.765 23.0505 11.5948 23.7056C11.2786 24.9216 10.4255 26.4459 9.85474 27.3756C11.1648 27.7813 12.5568 27.9999 13.9999 27.9999C21.7321 27.9999 28.0001 21.7321 28.0001 13.9999C28.0001 6.26812 21.7321 0 13.9999 0Z" fill="#2D7564"/>
</g>
<defs>
<clipPath id="clip0_82_70">
<rect width="28" height="28" fill="white"/>
</clipPath>
</defs>
</svg>
