<svg width="28" height="28" viewBox="0 0 28 28" fill="none" xmlns="http://www.w3.org/2000/svg">
<path d="M1.39242 0C0.331933 0 -0.28969 1.13364 0.316771 1.95964L10.1321 15.273L0.278355 26.2044C-0.359248 26.9107 0.168946 28 1.14912 28H2.23757C2.71782 28 3.17467 27.8 3.48609 27.4531L12.0721 17.9071L18.5356 26.6723C19.1502 27.503 20.1528 28 21.2215 28H26.6862C27.7466 28 28.3683 26.8678 27.7618 26.0434L17.4055 11.9766L26.7918 1.54036C27.336 0.933698 26.8819 0 26.0427 0H24.6565C24.1779 0 23.7226 0.198503 23.4112 0.543837L15.4751 9.34852L9.57183 1.33073C8.95881 0.496951 7.95787 0 6.88591 0H1.39242Z" fill="#2D7564"/>
</svg>
